<svg width="200" height="200" viewBox="0 0 200 200" xmlns="http://www.w3.org/2000/svg">
  <defs>
    <!-- Gradient for the hexagon background -->
    <linearGradient id="hexGradient" x1="0%" y1="0%" x2="100%" y2="100%">
      <stop offset="0%" style="stop-color:#1e40af;stop-opacity:1" />
      <stop offset="50%" style="stop-color:#1d4ed8;stop-opacity:1" />
      <stop offset="100%" style="stop-color:#3b82f6;stop-opacity:1" />
    </linearGradient>
    
    <!-- Gradient for the @ symbol -->
    <linearGradient id="atGradient" x1="0%" y1="0%" x2="0%" y2="100%">
      <stop offset="0%" style="stop-color:#ffffff;stop-opacity:1" />
      <stop offset="100%" style="stop-color:#e0e7ff;stop-opacity:1" />
    </linearGradient>
    
    <!-- Glow effect -->
    <filter id="glow">
      <feGaussianBlur stdDeviation="2" result="coloredBlur"/>
      <feMerge>
        <feMergeNode in="coloredBlur"/>
        <feMergeNode in="SourceGraphic"/>
      </feMerge>
    </filter>
  </defs>
  
  <!-- Hexagon background -->
  <path d="M 100 10 L 173.2 55 L 173.2 145 L 100 190 L 26.8 145 L 26.8 55 Z" 
        fill="url(#hexGradient)" 
        stroke="#60a5fa" 
        stroke-width="2"/>
  
  <!-- Network nodes (small circles around the @ symbol) -->
  <circle cx="70" cy="70" r="4" fill="#60a5fa" opacity="0.8"/>
  <circle cx="130" cy="70" r="4" fill="#60a5fa" opacity="0.8"/>
  <circle cx="70" cy="130" r="4" fill="#60a5fa" opacity="0.8"/>
  <circle cx="130" cy="130" r="4" fill="#60a5fa" opacity="0.8"/>
  
  <!-- Connection lines (representing MCP connectivity) -->
  <line x1="70" y1="70" x2="100" y2="100" stroke="#60a5fa" stroke-width="1.5" opacity="0.4"/>
  <line x1="130" y1="70" x2="100" y2="100" stroke="#60a5fa" stroke-width="1.5" opacity="0.4"/>
  <line x1="70" y1="130" x2="100" y2="100" stroke="#60a5fa" stroke-width="1.5" opacity="0.4"/>
  <line x1="130" y1="130" x2="100" y2="100" stroke="#60a5fa" stroke-width="1.5" opacity="0.4"/>
  
  <!-- @ symbol (AT Protocol) -->
  <g filter="url(#glow)">
    <!-- Outer circle of @ -->
    <circle cx="100" cy="100" r="35" fill="none" stroke="url(#atGradient)" stroke-width="8"/>
    
    <!-- Inner circle of @ -->
    <circle cx="100" cy="100" r="15" fill="none" stroke="url(#atGradient)" stroke-width="6"/>
    
    <!-- Tail of @ -->
    <path d="M 135 100 L 135 115 Q 135 125 125 125 Q 115 125 115 115" 
          fill="none" 
          stroke="url(#atGradient)" 
          stroke-width="8" 
          stroke-linecap="round"/>
  </g>
  
  <!-- Decorative corner accents -->
  <circle cx="50" cy="50" r="3" fill="#60a5fa" opacity="0.5"/>
  <circle cx="150" cy="50" r="3" fill="#60a5fa" opacity="0.5"/>
  <circle cx="50" cy="150" r="3" fill="#60a5fa" opacity="0.5"/>
  <circle cx="150" cy="150" r="3" fill="#60a5fa" opacity="0.5"/>
</svg>

